:SAMPLES-PER-SECOND 30
:FULLY-SPECIFIED
:DEGREES
605
root  64.1837 37.1075 25.3759 -147.287 4.49084 178.111
RightUpLeg  -63.7444 -15.1654 9.04316
RightLeg  34.0271 -3.97852 -3.13957
RightFoot  -2.16219 0.324 -4.21012
RightToes  0.00048216 0.542163 -0.142577
Spine  71.1832 -4.72483 6.36526
Spine1  3.44421 0.537024 -4.01833
HEad  -39.0267 -4.83952 1.48821
LeftShoulder1  6.25971 -27.2717 -13.1663
LeftArm  -95.6592 -75.9556 38.4486
LeftForeArm  21.4635 -16.3758 -1.81268
LeftHand  -0.25398 0.0180481 5.50724
RightShoulder  0.910131 10.2173 -2.01689
RightArm  -80.0355 72.4625 -14.9195
RightForeArm  -17.9102 15.6955 3.68203
RightHand  -8.37893 20.681 -36.4601
LeftUpLeg  -63.4716 14.3192 -19.3375
LeftLeg  29.4359 0.109676 0.415065
LeftFoot  -0.952573 -0.834409 9.21956
LeftToes  1.06245e-005 4.65856e-005 -8.18504e-006
606
root  64.4915 37.0755 25.1382 -146.399 4.28143 177.598
RightUpLeg  -64.7919 -15.265 9.30522
RightLeg  34.9105 -3.99413 -3.25182
RightFoot  -2.82472 0.305072 -4.34798
RightToes  0.00048216 0.542163 -0.142577
Spine  71.5486 -4.46512 5.97388
Spine1  3.72446 0.514521 -4.07281
HEad  -39.3244 -5.30688 1.9691
LeftShoulder1  5.56018 -26.8885 -10.9334
LeftArm  -98.2443 -75.4775 38.4812
LeftForeArm  23.9156 -19.3313 -2.40596
LeftHand  -0.25398 0.0180481 5.50724
RightShoulder  0.685435 9.71743 -3.66637
RightArm  -83.4811 71.454 -16.0001
RightForeArm  -14.4005 18.1417 3.97625
RightHand  -9.99671 22.9667 -39.6456
LeftUpLeg  -64.1437 14.0986 -19.6341
LeftLeg  29.6907 0.18423 0.460977
LeftFoot  -1.12422 -0.828193 9.31765
LeftToes  1.06245e-005 4.65856e-005 -8.18504e-006
607
root  64.7498 37.0881 24.9126 -145.494 4.22021 177.352
RightUpLeg  -65.6273 -15.22 9.75365
RightLeg  35.2959 -4.06009 -3.34597
RightFoot  -3.08957 0.302714 -4.48174
RightToes  0.00048216 0.542163 -0.142577
Spine  71.6759 -4.237 5.66554
Spine1  4.14448 0.629247 -4.31404
HEad  -39.6254 -5.13846 1.81804
LeftShoulder1  5.18877 -26.5862 -9.78142
LeftArm  -97.519 -75.1704 35.2076
LeftForeArm  28.2143 -24.3562 -3.7504
LeftHand  -0.25398 0.0180481 5.50724
RightShoulder  0.584385 9.49101 -4.45468
RightArm  -84.8626 70.9804 -16.5744
RightForeArm  -13.1061 21.5255 5.08349
RightHand  -12.1866 25.7983 -43.5002
LeftUpLeg  -64.6586 13.8555 -19.5679
LeftLeg  29.5867 0.31518 0.541169
LeftFoot  -1.19716 -0.810853 9.197
LeftToes  1.06245e-005 4.65856e-005 -8.18504e-006
608
root  64.9794 37.1368 24.7046 -144.803 4.03815 176.992
RightUpLeg  -66.1484 -15.1896 9.94494
RightLeg  35.498 -4.43225 -3.65275
RightFoot  -3.3525 0.310357 -4.76386
RightToes  0.00048216 0.542163 -0.142577
Spine  71.8353 -4.1865 5.41835
Spine1  4.35653 0.494213 -4.41266
HEad  -39.9995 -4.50089 1.41088
LeftShoulder1  5.14566 -26.4868 -9.68665
LeftArm  -95.964 -74.8702 33.2588
LeftForeArm  31.9051 -28.7435 -4.47922
LeftHand  -0.25398 0.0180481 5.50724
RightShoulder  0.534085 9.4633 -4.88871
RightArm  -86.4392 71.3166 -18.1943
RightForeArm  -12.5689 23.3789 5.61454
RightHand  -13.9752 27.9059 -46.3589
LeftUpLeg  -64.893 13.704 -19.6529
LeftLeg  29.2774 -0.0472265 0.318015
LeftFoot  -0.915114 -0.775167 8.54073
LeftToes  1.06245e-005 4.65856e-005 -8.18504e-006
609
root  65.1864 37.1972 24.5218 -144.401 3.86584 176.573
RightUpLeg  -66.2823 -15.115 9.85126
RightLeg  35.5626 -4.89835 -4.01617
RightFoot  -3.5974 0.313066 -4.98005
RightToes  0.00048216 0.542163 -0.142577
Spine  72.1894 -4.1163 5.17944
Spine1  4.19153 0.322227 -4.3874
HEad  -40.1555 -4.24498 1.35796
LeftShoulder1  5.12747 -26.296 -9.7429
LeftArm  -96.9443 -75.0784 35.0857
LeftForeArm  33.8201 -29.6671 -4.58803
LeftHand  -0.25398 0.0180481 5.50724
RightShoulder  0.456556 9.40105 -5.55504
RightArm  -89.7647 72.1153 -20.649
RightForeArm  -11.2322 22.0416 5.13379
RightHand  -14.6622 28.6321 -47.4322
LeftUpLeg  -64.8455 13.7143 -19.913
LeftLeg  28.9022 -0.337966 0.1426
LeftFoot  -0.538185 -0.774013 8.20347
LeftToes  1.06245e-005 4.65856e-005 -8.18504e-006
610
root  65.3617 37.2464 24.3743 -144.075 3.77301 176.275
RightUpLeg  -66.3494 -15.0555 9.81945
RightLeg  35.5391 -5.13247 -4.19112
RightFoot  -3.70686 0.316343 -5.10021
RightToes  0.00048216 0.542163 -0.142577
Spine  72.1507 -4.04906 5.27262
Spine1  4.41299 0.572985 -4.82251
HEad  -40.2642 -4.87683 1.88598
LeftShoulder1  4.79873 -26.1879 -8.58845
LeftArm  -100.481 -76.0241 39.7774
LeftForeArm  33.5786 -27.2066 -4.06168
LeftHand  -0.25398 0.0180481 5.50724
RightShoulder  0.412917 9.0702 -5.84567
RightArm  -93.3797 72.7289 -24.1273
RightForeArm  -11.3482 18.6834 3.86098
RightHand  -15.1878 29.1428 -48.2714
LeftUpLeg  -64.7179 13.5746 -19.924
LeftLeg  28.4991 -0.115821 0.27548
LeftFoot  -0.32649 -0.78969 8.19542
LeftToes  1.06245e-005 4.65856e-005 -8.18504e-006
611
root  65.5011 37.2805 24.2658 -143.677 3.57172 176.027
RightUpLeg  -66.7062 -15.3122 10.1012
RightLeg  35.6146 -5.03963 -4.13138
RightFoot  -3.74806 0.331133 -5.29726
RightToes  0.00048216 0.542163 -0.142577
Spine  72.0051 -3.97175 5.49772
Spine1  4.31765 0.837058 -4.98396
HEad  -40.2351 -5.19981 1.82048
LeftShoulder1  4.53749 -26.0303 -7.70627
LeftArm  -104.214 -77.0477 44.8429
LeftForeArm  32.4527 -23.8701 -3.39929
LeftHand  -0.25398 0.0180481 5.50724
RightShoulder  0.38073 8.69928 -6.03228
RightArm  -94.9963 73.3566 -26.5106
RightForeArm  -13.6825 15.9031 2.70895
RightHand  -16.6739 30.566 -50.5318
LeftUpLeg  -64.6556 13.1066 -19.6867
LeftLeg  28.0678 0.171676 0.442485
LeftFoot  -0.128712 -0.775329 7.89408
LeftToes  1.06245e-005 4.65856e-005 -8.18504e-006
612
root  65.6219 37.3075 24.1965 -143.363 3.27051 175.795
RightUpLeg  -67.1628 -15.7273 10.5196
RightLeg  35.8385 -4.87763 -4.03956
RightFoot  -3.72764 0.348066 -5.48741
RightToes  0.00048216 0.542163 -0.142577
Spine  71.9188 -3.88934 5.60162
Spine1  3.97186 0.881255 -4.76675
HEad  -40.199 -4.79895 1.12011
LeftShoulder1  4.48121 -25.9988 -7.51256
LeftArm  -106.565 -77.317 47.7972
LeftForeArm  31.941 -21.7032 -2.90747
LeftHand  -0.25398 0.0180481 5.50724
RightShoulder  0.383656 8.36702 -5.9045
RightArm  -96.7072 74.121 -28.2379
RightForeArm  -15.4034 14.847 2.29922
RightHand  -18.3447 32.0449 -53.0149
LeftUpLeg  -64.6531 12.7708 -19.5961
LeftLeg  27.7198 0.0776527 0.38632
LeftFoot  0.212283 -0.763579 7.52247
LeftToes  1.06245e-005 4.65856e-005 -8.18504e-006
613
root  65.7438 37.3297 24.1684 -143.367 3.1059 175.726
RightUpLeg  -67.2332 -15.749 10.696
RightLeg  36.0555 -4.99294 -4.15902
RightFoot  -3.59364 0.353464 -5.50708
RightToes  0.00048216 0.542163 -0.142577
Spine  72.0417 -3.73859 5.38943
Spine1  3.67167 0.868097 -4.62435
HEad  -40.1901 -4.23922 0.609842
LeftShoulder1  4.49243 -25.8248 -7.65742
LeftArm  -108.127 -77.0135 49.6802
LeftForeArm  31.6499 -20.5435 -2.58808
LeftHand  -0.25398 0.0180481 5.50724
RightShoulder  0.415299 8.27701 -5.56933
RightArm  -98.8291 74.6752 -29.8789
RightForeArm  -15.3572 14.6215 2.13138
RightHand  -18.5392 32.1455 -53.3601
LeftUpLeg  -64.6134 12.9512 -19.6437
LeftLeg  27.6093 -0.154092 0.254245
LeftFoot  0.523796 -0.788592 7.54611
LeftToes  1.06245e-005 4.65856e-005 -8.18504e-006
614
root  65.8593 37.3432 24.1797 -143.677 3.02789 175.747
RightUpLeg  -66.8878 -15.4674 10.5657
RightLeg  36.1967 -5.35072 -4.45701
RightFoot  -3.50579 0.354962 -5.52543
RightToes  0.00048216 0.542163 -0.142577
Spine  72.1485 -3.68897 5.23129
Spine1  3.79851 1.044 -5.04433
HEad  -40.3032 -4.22296 0.744376
LeftShoulder1  4.38928 -25.6372 -7.37657
LeftArm  -110.247 -76.7775 52.6995
LeftForeArm  30.9405 -19.2896 -2.29017
LeftHand  -0.25398 0.0180481 5.50724
RightShoulder  0.480731 8.35023 -4.96146
RightArm  -99.6972 74.5163 -31.487
RightForeArm  -15.2757 14.0133 1.93632
RightHand  -17.3875 31.1033 -51.743
LeftUpLeg  -64.3952 13.2145 -19.4873
LeftLeg  27.6583 -0.176271 0.242233
LeftFoot  0.665962 -0.806683 7.62006
LeftToes  1.06245e-005 4.65856e-005 -8.18504e-006
615
root  65.9429 37.3455 24.2225 -144.095 2.72675 175.583
RightUpLeg  -66.5369 -15.612 10.4468
RightLeg  36.3411 -5.54936 -4.63436
RightFoot  -3.67041 0.359348 -5.72232
RightToes  0.00048216 0.542163 -0.142577
Spine  72.1139 -3.87843 5.39084
Spine1  4.10003 1.13821 -5.45618
HEad  -40.4488 -4.37159 0.698323
LeftShoulder1  4.32092 -25.6076 -7.13277
LeftArm  -112.558 -76.7231 56.5292
LeftForeArm  30.1104 -17.8306 -2.05206
LeftHand  -0.25398 0.0180481 5.50724
RightShoulder  0.51702 8.36399 -4.61696
RightArm  -98.8199 73.9914 -32.2444
RightForeArm  -16.314 12.9857 1.79122
RightHand  -16.4598 30.2527 -50.3761
LeftUpLeg  -63.9393 13.0078 -19.1768
LeftLeg  27.5987 -0.0870148 0.293186
LeftFoot  0.810833 -0.799611 7.4545
LeftToes  1.06245e-005 4.65856e-005 -8.18504e-006
616
root  65.9926 37.3395 24.2913 -144.5 2.22333 175.281
RightUpLeg  -66.3402 -16.3324 10.6018
RightLeg  36.4547 -5.39074 -4.52906
RightFoot  -3.99647 0.355343 -5.94736
RightToes  0.00048216 0.542163 -0.142577
Spine  72.0096 -4.14525 5.66988
Spine1  4.16419 0.948006 -5.33685
HEad  -40.4344 -4.06998 -0.294552
LeftShoulder1  4.39386 -25.7433 -7.33195
LeftArm  -113.231 -76.5787 58.187
LeftForeArm  29.5523 -17.024 -1.98042
LeftHand  -0.25398 0.0180481 5.50724
RightShoulder  0.490714 8.22638 -4.81418
RightArm  -97.9273 73.8453 -32.2288
RightForeArm  -17.4046 12.0588 1.65477
RightHand  -16.1239 29.8432 -49.9838
LeftUpLeg  -63.4012 12.5669 -19.0001
LeftLeg  27.3654 -0.045329 0.316098
LeftFoot  1.07175 -0.818819 7.45738
LeftToes  1.06245e-005 4.65856e-005 -8.18504e-006
